<?xml version="1.0" encoding="UTF-8" standalone="no"?>
<!-- Created with Inkscape (http://www.inkscape.org/) -->

<svg
   xmlns:dc="http://purl.org/dc/elements/1.1/"
   xmlns:cc="http://creativecommons.org/ns#"
   xmlns:rdf="http://www.w3.org/1999/02/22-rdf-syntax-ns#"
   xmlns:svg="http://www.w3.org/2000/svg"
   xmlns="http://www.w3.org/2000/svg"
   xmlns:sodipodi="http://sodipodi.sourceforge.net/DTD/sodipodi-0.dtd"
   xmlns:inkscape="http://www.inkscape.org/namespaces/inkscape"
   width="210mm"
   height="297mm"
   id="svg2"
   version="1.1"
   inkscape:version="0.48.3.1 r9886"
   sodipodi:docname="icon.svg"
   inkscape:export-filename="/home/gsavaton/Travail/Projets-Externes/Mozilla/FirefoxOS/FxOS-Gribouille.git/icons/128.png"
   inkscape:export-xdpi="32"
   inkscape:export-ydpi="32">
  <defs
     id="defs4" />
  <sodipodi:namedview
     id="base"
     pagecolor="#ffffff"
     bordercolor="#666666"
     borderopacity="1.0"
     inkscape:pageopacity="0.0"
     inkscape:pageshadow="2"
     inkscape:zoom="0.98994949"
     inkscape:cx="74.030916"
     inkscape:cy="650.81589"
     inkscape:document-units="px"
     inkscape:current-layer="layer1"
     showgrid="false"
     inkscape:window-width="1366"
     inkscape:window-height="746"
     inkscape:window-x="0"
     inkscape:window-y="0"
     inkscape:window-maximized="1" />
  <metadata
     id="metadata7">
    <rdf:RDF>
      <cc:Work
         rdf:about="">
        <dc:format>image/svg+xml</dc:format>
        <dc:type
           rdf:resource="http://purl.org/dc/dcmitype/StillImage" />
        <dc:title />
      </cc:Work>
    </rdf:RDF>
  </metadata>
  <g
     inkscape:label="Calque 1"
     inkscape:groupmode="layer"
     id="layer1">
    <path
       sodipodi:type="arc"
       style="fill:#d7d7d7;fill-opacity:1;stroke:none"
       id="path2985"
       sodipodi:cx="297.14285"
       sodipodi:cy="289.50504"
       sodipodi:rx="180"
       sodipodi:ry="180"
       d="m 477.14285,289.50504 a 180,180 0 1 1 -360,0 180,180 0 1 1 360,0 z"
       transform="translate(33.335034,96.974645)" />
    <path
       style="fill:#000000;fill-opacity:1;stroke:none"
       d="m 338.72577,229.84458 c -97.38003,6.6756 -172.88219,115.54307 -143.07072,208.92324 14.17207,49.68335 72.10132,76.2462 120.36995,63.0111 37.05044,-9.96523 76.30366,-36.32891 80.83385,-77.48898 -0.31461,-25.22605 -28.76259,-50.05326 -53.4574,-39.17536 -19.2006,11.10993 -7.2507,35.30658 13.69635,33.97979 21.01331,-1.33098 41.08446,-6.36659 61.59965,-10.43125 23.71741,-4.69911 47.62846,-10.41535 71.9436,-9.00843 -44.61111,1.57422 -110.23689,18.06046 -132.69932,22.20601 -25.58399,4.72164 -47.37734,-24.76424 -26.19813,-39.18228 35.2334,-19.33669 84.89799,20.23985 71.43853,59.06967 -13.57239,35.42193 -52.10001,51.56094 -85.91341,61.52973 -48.56223,12.31089 -108.99077,-8.20707 -127.09135,-58.08383 -39.04817,-96.5975 44.86545,-216.86752 148.5484,-215.34941 z"
       id="path3095"
       inkscape:connector-curvature="0"
       sodipodi:nodetypes="cccccsscsccccc" />
  </g>
</svg>
